<?xml version="1.0" encoding="UTF-8" standalone="no"?>
<svg
   xmlns:dc="http://purl.org/dc/elements/1.1/"
   xmlns:cc="http://creativecommons.org/ns#"
   xmlns:rdf="http://www.w3.org/1999/02/22-rdf-syntax-ns#"
   xmlns:svg="http://www.w3.org/2000/svg"
   xmlns="http://www.w3.org/2000/svg"
   xmlns:sodipodi="http://sodipodi.sourceforge.net/DTD/sodipodi-0.dtd"
   xmlns:inkscape="http://www.inkscape.org/namespaces/inkscape"
   enable-background="new 0 0 24 24"
   height="512"
   viewBox="0 0 24 24"
   width="512"
   version="1.1"
   id="svg10"
   sodipodi:docname="discord.svg"
   inkscape:version="0.92.5 (2060ec1f9f, 2020-04-08)">
  <metadata
     id="metadata16">
    <rdf:RDF>
      <cc:Work
         rdf:about="">
        <dc:format>image/svg+xml</dc:format>
        <dc:type
           rdf:resource="http://purl.org/dc/dcmitype/StillImage" />
        <dc:title></dc:title>
      </cc:Work>
    </rdf:RDF>
  </metadata>
  <defs
     id="defs14" />
  <sodipodi:namedview
     pagecolor="#ffffff"
     bordercolor="#666666"
     borderopacity="1"
     objecttolerance="10"
     gridtolerance="10"
     guidetolerance="10"
     inkscape:pageopacity="0"
     inkscape:pageshadow="2"
     inkscape:window-width="1920"
     inkscape:window-height="1007"
     id="namedview12"
     showgrid="false"
     inkscape:zoom="0.4609375"
     inkscape:cx="-162.71187"
     inkscape:cy="256"
     inkscape:window-x="0"
     inkscape:window-y="0"
     inkscape:window-maximized="1"
     inkscape:current-layer="svg10"
     inkscape:pagecheckerboard="true" />
  <g
     id="g830">
    <g
       id="g8"
       fill="#5c6bc0">
      <path
         id="path2"
         d="m3.58 21.196h14.259l-.681-2.205c.101.088 5.842 5.009 5.842 5.009v-21.525c-.068-1.338-1.22-2.475-2.648-2.475l-16.767.003c-1.427 0-2.585 1.139-2.585 2.477v16.24c0 1.411 1.156 2.476 2.58 2.476zm10.548-15.513-.033.012.012-.012zm-7.631 1.269c1.833-1.334 3.532-1.27 3.532-1.27l.137.135c-2.243.535-3.26 1.537-3.26 1.537.104-.022 4.633-2.635 10.121.066 0 0-1.019-.937-3.124-1.537l.186-.183c.291.001 1.831.055 3.479 1.26 0 0 1.844 3.15 1.844 7.02-.061-.074-1.144 1.666-3.931 1.726 0 0-.472-.534-.808-1 1.63-.468 2.24-1.404 2.24-1.404-3.173 1.998-5.954 1.686-9.281.336-.031 0-.045-.014-.061-.03v-.006c-.016-.015-.03-.03-.061-.03h-.06c-.204-.134-.34-.2-.34-.2s.609.936 2.174 1.404c-.411.469-.818 1.002-.818 1.002-2.786-.066-3.802-1.806-3.802-1.806 0-3.876 1.833-7.02 1.833-7.02z" />
      <path
         id="path4"
         d="m14.308 12.771c.711 0 1.29-.6 1.29-1.34 0-.735-.576-1.335-1.29-1.335v.003c-.708 0-1.288.598-1.29 1.338 0 .734.579 1.334 1.29 1.334z" />
      <path
         id="path6"
         d="m9.69 12.771c.711 0 1.29-.6 1.29-1.34 0-.735-.575-1.335-1.286-1.335l-.004.003c-.711 0-1.29.598-1.29 1.338 0 .734.579 1.334 1.29 1.334z" />
    </g>
    <path
       transform="scale(0.046875)"
       inkscape:connector-curvature="0"
       id="path823"
       d="m 152.32629,331.78086 c -16.21586,-4.4662 -30.24323,-12.12846 -41.63909,-22.74481 l -10.58737,-9.86317 1.29062,-19.7893 c 2.46249,-37.75801 13.93639,-80.86486 30.25614,-113.67078 8.15842,-16.40001 10.40813,-19.13909 20.69618,-25.19806 14.70612,-8.66091 37.15548,-16.08573 52.45723,-17.34952 l 11.9322,-0.98549 -15.18644,5.10934 c -18.30124,6.15729 -44.7839,19.78485 -50.26326,25.86469 l -3.97403,4.40955 8.67797,-3.71228 c 35.66798,-15.25814 58.09627,-19.60413 99.79661,-19.33786 38.33789,0.2448 60.26605,4.50696 92.18519,17.91795 13.29636,5.58655 15.08261,5.93161 11.77272,2.27425 -4.52677,-5.00203 -38.37271,-22.36897 -50.92134,-26.12864 -12.01764,-3.60057 -10.88073,-7.03507 1.74309,-5.2657 28.21524,3.95468 59.65785,19.50174 67.36603,33.30968 15.40283,27.59168 31.55769,84.53314 34.20158,120.55138 l 1.45968,19.88521 -9.84008,9.07025 c -16.17358,14.90829 -36.97952,23.71589 -64.8518,27.45314 -7.37165,0.98843 -8.63267,0.30543 -15.9715,-8.65063 -4.38235,-5.34809 -7.61463,-10.01354 -7.18286,-10.36768 0.43177,-0.35413 6.57447,-3.25594 13.65042,-6.44846 13.09434,-5.90788 31.60921,-19.50094 31.60921,-23.20653 0,-1.12353 -5.24414,0.91682 -11.65364,4.53411 -16.30212,9.20036 -42.90158,18.49271 -62.10907,21.69741 -31.54557,5.26328 -74.89581,-1.51741 -116.50058,-18.22259 -10.42932,-4.18759 -19.22114,-7.35505 -19.53739,-7.0388 -1.83907,1.83906 16.10468,15.74286 29.23196,22.65053 l 15.38157,8.09388 -7.62025,9.17378 c -6.81259,8.20147 -8.57843,9.15322 -16.66066,8.97979 -4.97223,-0.10669 -13.61629,-1.45428 -19.20904,-2.99464 z m 62.2474,-59.72662 c 5.53365,0 16.19134,-11.19893 18.73392,-19.68531 3.38122,-11.2855 -0.25995,-23.62555 -9.18783,-31.13786 -5.16821,-4.34877 -9.00494,-5.58361 -17.3486,-5.58361 -9.17293,0 -11.87775,1.06753 -18.8166,7.42652 -7.63627,6.99812 -8.10373,8.17879 -8.10373,20.46771 0,11.49751 0.76076,13.83526 6.42698,19.74952 6.45242,6.73488 17.10512,11.30437 22.49622,9.64978 1.58911,-0.48771 4.19895,-0.88675 5.79964,-0.88675 z m 103.56306,-2.57021 c 12.8842,-4.93816 19.00636,-27.37412 11.11496,-40.73321 -8.28813,-14.03069 -27.87353,-17.78254 -40.91238,-7.83733 -13.3263,10.16447 -15.1636,29.21933 -4.08668,42.3835 8.58633,10.20428 18.62173,12.03668 33.8841,6.18704 z"
       style="opacity:1;fill:#ffffff;fill-opacity:1;stroke:none;stroke-width:8.19965363;stroke-linecap:round;stroke-linejoin:miter;stroke-miterlimit:4;stroke-dasharray:none;stroke-dashoffset:0;stroke-opacity:1;paint-order:stroke fill markers" />
  </g>
</svg>
