<?xml version="1.0" encoding="UTF-8" standalone="no"?>
<svg
   xmlns:dc="http://purl.org/dc/elements/1.1/"
   xmlns:cc="http://creativecommons.org/ns#"
   xmlns:rdf="http://www.w3.org/1999/02/22-rdf-syntax-ns#"
   xmlns:svg="http://www.w3.org/2000/svg"
   xmlns="http://www.w3.org/2000/svg"
   xmlns:sodipodi="http://sodipodi.sourceforge.net/DTD/sodipodi-0.dtd"
   xmlns:inkscape="http://www.inkscape.org/namespaces/inkscape"
   viewBox="0 0 240 128"
   version="1.1"
   id="svg8"
   sodipodi:docname="git.svg"
   width="240"
   height="128"
   inkscape:version="0.92.5 (2060ec1f9f, 2020-04-08)">
  <metadata
     id="metadata14">
    <rdf:RDF>
      <cc:Work
         rdf:about="">
        <dc:format>image/svg+xml</dc:format>
        <dc:type
           rdf:resource="http://purl.org/dc/dcmitype/StillImage" />
        <dc:title></dc:title>
      </cc:Work>
    </rdf:RDF>
  </metadata>
  <defs
     id="defs12" />
  <sodipodi:namedview
     pagecolor="#ffffff"
     bordercolor="#666666"
     borderopacity="1"
     objecttolerance="10"
     gridtolerance="10"
     guidetolerance="10"
     inkscape:pageopacity="0"
     inkscape:pageshadow="2"
     inkscape:window-width="1920"
     inkscape:window-height="1007"
     id="namedview10"
     showgrid="false"
     inkscape:zoom="1.3037281"
     inkscape:cx="33.103047"
     inkscape:cy="-12.396532"
     inkscape:window-x="0"
     inkscape:window-y="0"
     inkscape:window-maximized="1"
     inkscape:current-layer="svg8" />
  <g
     id="g908"
     transform="translate(-159.54248,-71.333891)">
    <g
       id="g897">
      <g
         id="g870"
         style="stroke:#ffffff;stroke-width:8;stroke-miterlimit:4;stroke-dasharray:none;stroke-opacity:1">
        <path
           style="fill:#ffffff;stroke:#ffffff;stroke-width:8;stroke-miterlimit:4;stroke-dasharray:none;stroke-opacity:1"
           inkscape:connector-curvature="0"
           id="path2"
           d="m 298.92492,122.96528 c -4.68712,0 -8.17721,2.3016 -8.17721,7.84155 0,4.17338 2.2999,7.07093 7.92547,7.07093 4.76761,0 8.00767,-2.81022 8.00767,-7.24389 0,-5.02449 -2.89927,-7.66859 -7.75593,-7.66859 z m -9.36911,39.11359 c -1.1097,1.36144 -2.21598,2.8085 -2.21598,4.51587 0,3.40617 4.34291,4.43025 10.31099,4.43025 4.94057,0 11.67242,-0.34593 11.67242,-4.94058 0,-2.73144 -3.24006,-2.89927 -7.33123,-3.15614 z m 25.21662,-38.85672 c 1.53269,1.96082 3.15443,4.68713 3.15443,8.60705 0,9.45644 -7.41343,14.99468 -18.1474,14.99468 -2.72973,0 -5.20088,-0.33907 -6.73357,-0.76549 l -2.81193,4.51588 8.34846,0.50861 c 14.74123,0.94016 23.43047,1.36658 23.43047,12.69479 0,9.80066 -8.60361,15.33547 -23.43047,15.33547 -15.42281,0 -21.30012,-3.91992 -21.30012,-10.64835 0,-3.83601 1.70565,-5.8756 4.68712,-8.69267 -2.81365,-1.18847 -3.74867,-3.31712 -3.74867,-5.61872 0,-1.87519 0.93674,-3.57913 2.47114,-5.19916 1.5344,-1.61661 3.23834,-3.23835 5.28136,-5.11183 -4.17508,-2.04473 -7.32609,-6.47497 -7.32609,-12.78213 0,-9.79723 6.47498,-16.52566 19.51056,-16.52566 3.66475,0 5.88245,0.33737 7.83984,0.85283 h 16.61642 v 7.24047 z m 22.8311,-15.48103 c -4.85837,0 -7.67031,-2.81364 -7.67031,-7.67202 0,-4.85152 2.81194,-7.495626 7.67031,-7.495626 4.94229,0 7.7525,2.642394 7.7525,7.495626 0.002,4.85838 -2.81021,7.67202 -7.7525,7.67202 z m -10.99427,51.20386 v -6.72842 l 4.34804,-0.59596 c 1.1919,-0.17124 1.36144,-0.42641 1.36144,-1.70736 v -25.04879 c 0,-0.93503 -0.25345,-1.53441 -1.10799,-1.78786 l -4.60149,-1.62003 0.93673,-6.89796 h 17.64051 v 35.35635 c 0,1.36658 0.0822,1.5344 1.36315,1.70737 l 4.34633,0.59595 v 6.72843 h -24.28672 z m 57.98024,-3.30513 c -3.66647,1.78614 -9.03175,3.40788 -13.89183,3.40788 -10.13803,0 -13.97061,-4.08603 -13.97061,-13.71886 v -22.32249 c 0,-0.50861 0,-0.85112 -0.68329,-0.85112 h -5.96294 v -7.58296 c 7.50077,-0.85454 10.48053,-4.60321 11.41727,-13.89012 h 8.09671 v 12.10226 c 0,0.59424 0,0.85283 0.68158,0.85283 h 12.01321 v 8.51971 h -12.69479 v 20.36167 c 0,5.0262 1.19362,6.9853 5.7934,6.9853 2.38895,0 4.85666,-0.59424 6.90139,-1.36144 z" />
        <path
           style="fill:#ffffff;stroke:#ffffff;stroke-width:8;stroke-miterlimit:4;stroke-dasharray:none;stroke-opacity:1"
           inkscape:connector-curvature="0"
           id="path4"
           d="M 258.34372,133.2814 219.38597,94.325366 c -2.24167,-2.24338 -5.88074,-2.24338 -8.12412,0 l -8.08987,8.089864 10.25961,10.26133 c 2.38723,-0.80488 5.12039,-0.26544 7.02127,1.63715 1.91115,1.91287 2.44716,4.67 1.62174,7.06408 l 9.88971,9.88971 c 2.39065,-0.82372 5.15292,-0.29113 7.06408,1.62174 2.6715,2.66979 2.6715,6.99729 0,9.66879 -2.67322,2.67151 -6.99901,2.67151 -9.67051,0 -2.00877,-2.01047 -2.5054,-4.96112 -1.48817,-7.43569 l -9.22354,-9.22354 -0.002,24.27303 c 0.65247,0.32195 1.26554,0.75007 1.80841,1.29122 2.6715,2.6698 2.6715,6.99558 0,9.67051 -2.67151,2.6698 -7.00072,2.6698 -9.6688,0 -2.67151,-2.67493 -2.67151,-7.00071 0,-9.67051 0.66103,-0.65931 1.42309,-1.15765 2.23824,-1.49159 V 125.4741 c -0.81515,-0.33223 -1.57721,-0.82886 -2.23824,-1.49159 -2.02418,-2.02247 -2.51053,-4.99024 -1.47275,-7.47508 l -10.11405,-10.11748 -26.71335,26.71164 c -2.24509,2.24509 -2.24509,5.88416 0,8.12925 l 38.95775,38.95604 c 2.24338,2.24338 5.88074,2.24338 8.12755,0 l 38.77451,-38.77794 c 2.24509,-2.24338 2.24509,-5.88416 0,-8.12754 z" />
        <path
           sodipodi:nodetypes="cccccc"
           inkscape:connector-curvature="0"
           id="path855"
           d="m 187.53365,118.78789 c 7.73245,-7.38478 14.28241,-15.89968 21.81477,-22.053759 l 43.26175,41.842139 -35.66102,34.16949 -35.11864,-43.52542 z"
           style="fill:#ffffff;stroke:#ffffff;stroke-width:8;stroke-linecap:butt;stroke-linejoin:miter;stroke-miterlimit:4;stroke-dasharray:none;stroke-opacity:1" />
      </g>
      <g
         id="g883"
         transform="translate(-0.12877932,-0.14522954)">
        <path
           style="fill:#000000;stroke-width:1.71250379"
           inkscape:connector-curvature="0"
           id="path2-6"
           d="m 299.09004,123.41224 c -4.68712,0 -8.17721,2.30161 -8.17721,7.84156 0,4.17337 2.2999,7.07093 7.92547,7.07093 4.76761,0 8.00767,-2.81022 8.00767,-7.24389 0,-5.02449 -2.89927,-7.6686 -7.75593,-7.6686 z m -9.36911,39.11359 c -1.1097,1.36144 -2.21598,2.80851 -2.21598,4.51587 0,3.40617 4.34291,4.43025 10.31099,4.43025 4.94057,0 11.67242,-0.34593 11.67242,-4.94057 0,-2.73145 -3.24006,-2.89927 -7.33123,-3.15615 z m 25.21662,-38.85671 c 1.53269,1.96082 3.15443,4.68712 3.15443,8.60704 0,9.45645 -7.41343,14.99469 -18.1474,14.99469 -2.72973,0 -5.20088,-0.33908 -6.73357,-0.76549 l -2.81193,4.51587 8.34846,0.50861 c 14.74123,0.94017 23.43047,1.36658 23.43047,12.69479 0,9.80066 -8.60361,15.33547 -23.43047,15.33547 -15.42281,0 -21.30012,-3.91992 -21.30012,-10.64834 0,-3.83601 1.70565,-5.8756 4.68712,-8.69267 -2.81365,-1.18848 -3.74867,-3.31712 -3.74867,-5.61873 0,-1.87519 0.93674,-3.57913 2.47114,-5.19916 1.5344,-1.6166 3.23834,-3.23834 5.28136,-5.11182 -4.17508,-2.04473 -7.32609,-6.47498 -7.32609,-12.78213 0,-9.79723 6.47498,-16.52566 19.51056,-16.52566 3.66475,0 5.88245,0.33736 7.83984,0.85283 h 16.61642 v 7.24046 z m 22.8311,-15.48103 c -4.85837,0 -7.67031,-2.81365 -7.67031,-7.67202 0,-4.851525 2.81194,-7.495631 7.67031,-7.495631 4.94229,0 7.7525,2.642394 7.7525,7.495631 0.002,4.85837 -2.81021,7.67202 -7.7525,7.67202 z m -10.99427,51.20386 v -6.72843 l 4.34804,-0.59595 c 1.1919,-0.17125 1.36144,-0.42641 1.36144,-1.70737 v -25.04879 c 0,-0.93503 -0.25345,-1.5344 -1.10799,-1.78785 l -4.60149,-1.62003 0.93673,-6.89797 h 17.64051 v 35.35636 c 0,1.36657 0.0822,1.5344 1.36315,1.70736 l 4.34633,0.59595 v 6.72843 h -24.28672 z m 57.98024,-3.30513 c -3.66647,1.78614 -9.03175,3.40788 -13.89183,3.40788 -10.13803,0 -13.97061,-4.08603 -13.97061,-13.71887 v -22.32249 c 0,-0.50861 0,-0.85111 -0.68329,-0.85111 h -5.96294 v -7.58297 c 7.50077,-0.85454 10.48053,-4.60321 11.41727,-13.89012 h 8.09671 v 12.10227 c 0,0.59424 0,0.85283 0.68158,0.85283 h 12.01321 v 8.5197 h -12.69479 v 20.36167 c 0,5.0262 1.19362,6.98531 5.7934,6.98531 2.38895,0 4.85666,-0.59424 6.90139,-1.36145 z" />
        <path
           style="fill:#f34f29;stroke-width:1.71250379"
           inkscape:connector-curvature="0"
           id="path4-7"
           d="M 258.50884,133.72837 219.55109,94.772331 c -2.24167,-2.24338 -5.88074,-2.24338 -8.12412,0 l -8.08987,8.089869 10.25961,10.26132 c 2.38723,-0.80487 5.12039,-0.26544 7.02127,1.63715 1.91115,1.91287 2.44716,4.67 1.62174,7.06408 l 9.88971,9.88971 c 2.39065,-0.82371 5.15292,-0.29112 7.06408,1.62174 2.6715,2.6698 2.6715,6.99729 0,9.6688 -2.67322,2.67151 -6.99901,2.67151 -9.67051,0 -2.00877,-2.01048 -2.5054,-4.96112 -1.48817,-7.43569 l -9.22354,-9.22355 -0.002,24.27303 c 0.65247,0.32195 1.26554,0.75008 1.80841,1.29123 2.6715,2.66979 2.6715,6.99558 0,9.67051 -2.67151,2.66979 -7.00072,2.66979 -9.6688,0 -2.67151,-2.67493 -2.67151,-7.00072 0,-9.67051 0.66103,-0.65931 1.42309,-1.15765 2.23824,-1.49159 v -24.49737 c -0.81515,-0.33222 -1.57721,-0.82885 -2.23824,-1.49159 -2.02418,-2.02247 -2.51053,-4.99024 -1.47275,-7.47508 l -10.11405,-10.11747 -26.71335,26.71163 c -2.24509,2.2451 -2.24509,5.88417 0,8.12926 l 38.95775,38.95603 c 2.24338,2.24338 5.88074,2.24338 8.12755,0 l 38.77451,-38.77793 c 2.24509,-2.24338 2.24509,-5.88416 0,-8.12754 z" />
      </g>
      <path
         d="M 170.96564,93.018727 H 384.75462 V 182.31381 H 170.96564 Z"
         id="path6-5"
         inkscape:connector-curvature="0"
         style="fill:none;stroke-width:1.71250379" />
    </g>
  </g>
</svg>
