<?xml version="1.0" encoding="UTF-8" standalone="no"?>
<svg
   xmlns:dc="http://purl.org/dc/elements/1.1/"
   xmlns:cc="http://creativecommons.org/ns#"
   xmlns:rdf="http://www.w3.org/1999/02/22-rdf-syntax-ns#"
   xmlns:svg="http://www.w3.org/2000/svg"
   xmlns="http://www.w3.org/2000/svg"
   xmlns:sodipodi="http://sodipodi.sourceforge.net/DTD/sodipodi-0.dtd"
   xmlns:inkscape="http://www.inkscape.org/namespaces/inkscape"
   viewBox="0 0 48 48"
   width="48px"
   height="48px"
   version="1.1"
   id="svg10"
   sodipodi:docname="icons8-inkscape.svg"
   inkscape:version="0.92.5 (2060ec1f9f, 2020-04-08)">
  <metadata
     id="metadata16">
    <rdf:RDF>
      <cc:Work
         rdf:about="">
        <dc:format>image/svg+xml</dc:format>
        <dc:type
           rdf:resource="http://purl.org/dc/dcmitype/StillImage" />
      </cc:Work>
    </rdf:RDF>
  </metadata>
  <defs
     id="defs14" />
  <sodipodi:namedview
     pagecolor="#ffffff"
     bordercolor="#666666"
     borderopacity="1"
     objecttolerance="10"
     gridtolerance="10"
     guidetolerance="10"
     inkscape:pageopacity="0"
     inkscape:pageshadow="2"
     inkscape:window-width="1920"
     inkscape:window-height="1007"
     id="namedview12"
     showgrid="false"
     inkscape:zoom="13.906433"
     inkscape:cx="22.895908"
     inkscape:cy="22.041383"
     inkscape:window-x="0"
     inkscape:window-y="0"
     inkscape:window-maximized="1"
     inkscape:current-layer="svg10" />
  <g
     id="g873"
     transform="translate(0.57527331,0.79100081)">
    <g
       transform="translate(-56.098078,-13.102094)"
       id="g864">
      <path
         style="fill:#ffffff"
         d="m 79.576172,12.412109 c -7.108928,0.748847 -10.108045,9.073457 -15.398806,12.927442 -2.249549,3.68506 -10.36442,7.388893 -7.566038,12.77373 1.693536,2.306699 5.039631,2.559001 7.34961,3.439453 -3.768164,1.668378 -1.369089,6.244654 2.011718,6.527344 2.104749,1.144168 7.040268,1.064366 4.107422,3.916016 -1.167949,3.493461 3.18088,4.061397 5.113281,5.08789 1.495971,5.815062 10.504648,3.12807 12.613282,-0.875 0.158344,-1.849371 -1.745272,-3.164379 1.1875,-3.388672 2.551233,-1.190268 2.963069,-0.608465 3.980468,1.574219 2.651348,2.858742 6.694904,-0.615553 6.09961,-3.009765 4.015441,1.154522 6.736661,-4.141222 2.916011,-6.21875 -2.490534,-1.998078 -6.269627,0.139484 -7.640621,1.292968 -0.837828,-1.26211 -3.225778,-2.000965 -0.226562,-2.408203 4.221153,-1.18416 12.022863,-4.176965 9.171873,-9.912109 C 97.321084,26.808161 90.303576,20.154703 83.585938,13.515625 82.390114,12.776735 80.981165,12.390809 79.576172,12.412109 Z"
         id="path2-6"
         inkscape:connector-curvature="0" />
      <path
         style="fill:#ffffff"
         d="m 67.978516,48.390625 c -4.335928,-0.533939 -7.236489,5.866707 -2.640625,7.730469 5.083241,1.87589 10.101152,-7.535864 2.640625,-7.730469 z"
         id="path4-7"
         inkscape:connector-curvature="0" />
    </g>
    <path
       style="fill:#212121"
       inkscape:connector-curvature="0"
       id="path2"
       d="m 44.265,20.499545 -16.76,-17.429 c -2.08,-2.003 -5.498,-2.003 -7.423,0 l -16.174,16.825 c -6.131,6.227 4.157,5.727 7.813,8.086 1.686,1.116 -4.968,2.559 -3.52,4.031 1.411,1.481 8.076,2.815 9.487,4.25 1.411,1.472 -2.826,3.039 -1.406,4.511 1.375,1.472 4.423,0.07 5.019,3.417 0.431,2.478 5.779,1.233 8.29,-0.879 1.567,-1.353 -2.74,-1.352 -1.329,-2.833 1.265,-1.298 2.474,-1.875 3.574,-2.231 1.97,-0.649 4.22,-0.504 5.054,-2.662 0.706,-1.792 -5.266,-3.194 -3.654,-4.346 3.848,-2.751 17.554,-4.12 11.029,-10.74 z m -18.548,11.973 c -2.126,0.732 -11.867,-3.948 -9.31,-3.948 0.44,0.001 14.854,2.065 9.31,3.948 z m 12.95,5.076 c -1.847,1.904 0.321,3.899 2.128,2.584 0.483,-0.363 -0.039,-2.131 -2.128,-2.584 z m 1.354,-1.846 c 0,0.899 6.313,1.412 5.965,-0.214 -0.503,-2.739 -5.267,-2.525 -5.965,0.214 z" />
    <path
       style="fill:#212121"
       inkscape:connector-curvature="0"
       id="path4"
       d="m 9.552,40.701908 c 1.477,1.555 3.711,-0.34 4.43,-2.527 -1.437,-2.284 -6.745,0.146 -4.43,2.527 z" />
    <path
       id="path6"
       d="m 26.77,5.59 -4.48,7.59 -7.94,13.46 C 12.8,26.05 11.14,25.69 9.59,25.41 8.99,25.22 8.38,25.05 7.77,24.89 6.63,24.58 4.56,24.01 4.03,23.52 4.1,23.31 4.37,22.74 5.38,21.71 l 7.68,-7.98 8.5,-8.84 C 22.11,4.32 22.89,4 23.77,4 c 0.88,0 1.74,0.33 2.36,0.92 z"
       inkscape:connector-curvature="0"
       style="fill:#424242" />
    <path
       id="path8"
       d="m 33.07,12.13 c -0.03,0.1 -0.08,0.18 -0.13,0.24 l -3.05,-2.51 -0.6,3.69 -2.51,-1.37 -4.09,2.62 -0.4,-1.62 -0.95,-3.89 -2.18,4.79 -5.45,-0.04 c -0.34,0 -0.55,-0.12 -0.65,-0.31 l 8.5,-8.84 C 22.11,4.32 22.89,4 23.77,4 c 0.88,0 1.74,0.33 2.36,0.92 l 0.64,0.67 z"
       inkscape:connector-curvature="0"
       style="fill:#fafafa" />
  </g>
</svg>
