<?xml version="1.0" encoding="UTF-8" standalone="no"?>
<!-- Generator: Adobe Illustrator 19.0.0, SVG Export Plug-In . SVG Version: 6.00 Build 0)  -->

<svg
   xmlns:dc="http://purl.org/dc/elements/1.1/"
   xmlns:cc="http://creativecommons.org/ns#"
   xmlns:rdf="http://www.w3.org/1999/02/22-rdf-syntax-ns#"
   xmlns:svg="http://www.w3.org/2000/svg"
   xmlns="http://www.w3.org/2000/svg"
   xmlns:sodipodi="http://sodipodi.sourceforge.net/DTD/sodipodi-0.dtd"
   xmlns:inkscape="http://www.inkscape.org/namespaces/inkscape"
   version="1.1"
   id="Layer_1"
   x="0px"
   y="0px"
   viewBox="0 0 551.034 551.034"
   style="enable-background:new 0 0 551.034 551.034;"
   xml:space="preserve"
   sodipodi:docname="instagram.svg"
   inkscape:version="0.92.5 (2060ec1f9f, 2020-04-08)"><metadata
   id="metadata72"><rdf:RDF><cc:Work
       rdf:about=""><dc:format>image/svg+xml</dc:format><dc:type
         rdf:resource="http://purl.org/dc/dcmitype/StillImage" /><dc:title></dc:title></cc:Work></rdf:RDF></metadata><defs
   id="defs70" /><sodipodi:namedview
   pagecolor="#ffffff"
   bordercolor="#666666"
   borderopacity="1"
   objecttolerance="10"
   gridtolerance="10"
   guidetolerance="10"
   inkscape:pageopacity="0"
   inkscape:pageshadow="2"
   inkscape:window-width="1920"
   inkscape:window-height="1007"
   id="namedview68"
   showgrid="false"
   inkscape:pagecheckerboard="true"
   inkscape:zoom="0.42828573"
   inkscape:cx="282.52167"
   inkscape:cy="275.517"
   inkscape:window-x="0"
   inkscape:window-y="0"
   inkscape:window-maximized="1"
   inkscape:current-layer="Layer_1" />

<g
   id="g37">
</g>
<g
   id="g39">
</g>
<g
   id="g41">
</g>
<g
   id="g43">
</g>
<g
   id="g45">
</g>
<g
   id="g47">
</g>
<g
   id="g49">
</g>
<g
   id="g51">
</g>
<g
   id="g53">
</g>
<g
   id="g55">
</g>
<g
   id="g57">
</g>
<g
   id="g59">
</g>
<g
   id="g61">
</g>
<g
   id="g63">
</g>
<g
   id="g65">
</g>
<g
   id="g904"><g
     id="g35">
	
		<linearGradient
   gradientTransform="matrix(1 0 0 -1 0 554)"
   y2="549.72"
   x2="275.517"
   y1="4.57"
   x1="275.517"
   gradientUnits="userSpaceOnUse"
   id="SVGID_1_">
		<stop
   id="stop2"
   style="stop-color:#E09B3D"
   offset="0" />
		<stop
   id="stop4"
   style="stop-color:#C74C4D"
   offset="0.3" />
		<stop
   id="stop6"
   style="stop-color:#C21975"
   offset="0.6" />
		<stop
   id="stop8"
   style="stop-color:#7024C4"
   offset="1" />
	</linearGradient>
	<path
   id="path11"
   d="M386.878,0H164.156C73.64,0,0,73.64,0,164.156v222.722   c0,90.516,73.64,164.156,164.156,164.156h222.722c90.516,0,164.156-73.64,164.156-164.156V164.156   C551.033,73.64,477.393,0,386.878,0z M495.6,386.878c0,60.045-48.677,108.722-108.722,108.722H164.156   c-60.045,0-108.722-48.677-108.722-108.722V164.156c0-60.046,48.677-108.722,108.722-108.722h222.722   c60.045,0,108.722,48.676,108.722,108.722L495.6,386.878L495.6,386.878z"
   style="fill:url(#SVGID_1_);" />
	
		<linearGradient
   gradientTransform="matrix(1 0 0 -1 0 554)"
   y2="549.72"
   x2="275.517"
   y1="4.57"
   x1="275.517"
   gradientUnits="userSpaceOnUse"
   id="SVGID_2_">
		<stop
   id="stop13"
   style="stop-color:#E09B3D"
   offset="0" />
		<stop
   id="stop15"
   style="stop-color:#C74C4D"
   offset="0.3" />
		<stop
   id="stop17"
   style="stop-color:#C21975"
   offset="0.6" />
		<stop
   id="stop19"
   style="stop-color:#7024C4"
   offset="1" />
	</linearGradient>
	<path
   id="path22"
   d="M275.517,133C196.933,133,133,196.933,133,275.516s63.933,142.517,142.517,142.517   S418.034,354.1,418.034,275.516S354.101,133,275.517,133z M275.517,362.6c-48.095,0-87.083-38.988-87.083-87.083   s38.989-87.083,87.083-87.083c48.095,0,87.083,38.988,87.083,87.083C362.6,323.611,323.611,362.6,275.517,362.6z"
   style="fill:url(#SVGID_2_);" />
	
		<linearGradient
   gradientTransform="matrix(1 0 0 -1 0 554)"
   y2="549.72"
   x2="418.31"
   y1="4.57"
   x1="418.31"
   gradientUnits="userSpaceOnUse"
   id="SVGID_3_">
		<stop
   id="stop24"
   style="stop-color:#E09B3D"
   offset="0" />
		<stop
   id="stop26"
   style="stop-color:#C74C4D"
   offset="0.3" />
		<stop
   id="stop28"
   style="stop-color:#C21975"
   offset="0.6" />
		<stop
   id="stop30"
   style="stop-color:#7024C4"
   offset="1" />
	</linearGradient>
	<circle
   id="circle33"
   r="34.15"
   cy="134.07"
   cx="418.31"
   style="fill:url(#SVGID_3_);" />
</g><path
     inkscape:connector-curvature="0"
     id="path879"
     d="M 131.13197,489.0988 C 95.438096,477.58943 66.984589,446.35986 59.224461,410.17563 57.643987,402.80613 57.023058,352.78329 57.461657,268.16187 l 0.677099,-130.63686 8.674382,-18.16622 C 78.346913,95.204329 95.204329,78.346913 119.35879,66.813138 l 18.16622,-8.674382 130.63686,-0.677099 c 84.62142,-0.438599 134.64426,0.182331 142.01376,1.762804 37.36398,8.013144 70.05297,38.876385 79.7698,75.314539 3.48195,13.05731 3.83146,29.21394 3.19614,147.74918 l -0.71331,133.08872 -7.18315,15.18969 c -10.58678,22.38716 -30.3135,42.52521 -52.07976,53.16573 l -17.78845,8.69594 -135.42361,0.4953 c -126.18052,0.46149 -136.33805,0.20034 -148.82132,-3.82476 z m 187.38268,-76.88528 c 31.69302,-10.1206 62.98827,-35.05323 80.02795,-63.75753 24.94603,-42.02302 26.67327,-93.45423 4.63364,-137.97403 -11.66231,-23.55772 -39.59516,-51.16593 -63.68326,-62.9431 -53.70809,-26.259 -116.6833,-17.61343 -159.85519,21.94577 -19.04253,17.44902 -30.74175,35.25315 -39.5351,60.1654 -6.23001,17.6501 -7.03226,22.91025 -6.95979,45.63348 0.0682,21.37687 1.11888,28.81609 6.26576,44.36291 15.30952,46.24438 55.66472,83.6251 103.21492,95.60722 19.20855,4.84034 55.80389,3.37436 75.89107,-3.04012 z M 435.48908,163.94641 c 9.55855,-5.37221 18.4135,-19.76237 18.4135,-29.92373 0,-10.16137 -8.85495,-24.55153 -18.4135,-29.92374 -23.67989,-13.308844 -51.63319,2.89134 -51.63319,29.92374 0,27.03239 27.9533,43.23257 51.63319,29.92373 z"
     style="opacity:1;fill:#ffffff;fill-opacity:1;stroke:none;stroke-width:8.82478046;stroke-linecap:round;stroke-linejoin:miter;stroke-miterlimit:4;stroke-dasharray:none;stroke-dashoffset:0;stroke-opacity:1;paint-order:stroke fill markers" /><path
     inkscape:connector-curvature="0"
     id="path881"
     d="m 245.58017,356.08842 c -58.51225,-23.45534 -74.30344,-96.00913 -30.6156,-140.66558 5.82622,-5.95539 16.52793,-13.83565 23.78158,-17.51168 11.89894,-6.03018 15.47143,-6.68368 36.53736,-6.68368 20.88236,0 24.76455,0.69516 36.74983,6.5806 17.07372,8.38414 32.34146,23.65187 40.7256,40.72559 5.88544,11.98529 6.5806,15.86747 6.5806,36.74984 0,20.42494 -0.78075,25.01453 -6.23458,36.64959 -7.96092,16.98363 -24.22076,33.23327 -41.17186,41.14604 -17.76508,8.29274 -49.57391,9.73535 -66.35293,3.00928 z"
     style="opacity:1;fill:#ffffff;fill-opacity:1;stroke:none;stroke-width:8.82478046;stroke-linecap:round;stroke-linejoin:miter;stroke-miterlimit:4;stroke-dasharray:none;stroke-dashoffset:0;stroke-opacity:1;paint-order:stroke fill markers" /></g></svg>