<?xml version="1.0" encoding="UTF-8" standalone="no"?>
<!-- Generator: Adobe Illustrator 19.0.0, SVG Export Plug-In . SVG Version: 6.00 Build 0)  -->

<svg
   xmlns:dc="http://purl.org/dc/elements/1.1/"
   xmlns:cc="http://creativecommons.org/ns#"
   xmlns:rdf="http://www.w3.org/1999/02/22-rdf-syntax-ns#"
   xmlns:svg="http://www.w3.org/2000/svg"
   xmlns="http://www.w3.org/2000/svg"
   xmlns:sodipodi="http://sodipodi.sourceforge.net/DTD/sodipodi-0.dtd"
   xmlns:inkscape="http://www.inkscape.org/namespaces/inkscape"
   version="1.1"
   id="Layer_1"
   x="0px"
   y="0px"
   viewBox="0 0 382 382"
   style="enable-background:new 0 0 382 382;"
   xml:space="preserve"
   sodipodi:docname="linkedin_branco.svg"
   inkscape:version="0.92.5 (2060ec1f9f, 2020-04-08)"><metadata
   id="metadata39"><rdf:RDF><cc:Work
       rdf:about=""><dc:format>image/svg+xml</dc:format><dc:type
         rdf:resource="http://purl.org/dc/dcmitype/StillImage" /><dc:title></dc:title></cc:Work></rdf:RDF></metadata><defs
   id="defs37" /><sodipodi:namedview
   pagecolor="#ffffff"
   bordercolor="#666666"
   borderopacity="1"
   objecttolerance="10"
   gridtolerance="10"
   guidetolerance="10"
   inkscape:pageopacity="0"
   inkscape:pageshadow="2"
   inkscape:window-width="1920"
   inkscape:window-height="1007"
   id="namedview35"
   showgrid="false"
   inkscape:zoom="1.2356021"
   inkscape:cx="164.35257"
   inkscape:cy="161.07243"
   inkscape:window-x="0"
   inkscape:window-y="0"
   inkscape:window-maximized="1"
   inkscape:current-layer="Layer_1"
   inkscape:pagecheckerboard="true" />
<g
   id="g833"><rect
     y="20.233049"
     x="15.377116"
     height="346.38983"
     width="350.43643"
     id="rect846"
     style="opacity:1;fill:#ffffff;fill-opacity:1;stroke:none;stroke-width:3.77952766;stroke-linecap:round;stroke-linejoin:miter;stroke-miterlimit:4;stroke-dasharray:none;stroke-dashoffset:0;stroke-opacity:1;paint-order:stroke fill markers" /><path
     id="path2"
     d="M 349.06365,-1.2594531e-6 H 36.173641 C 17.089641,-1.2594531e-6 1.6186412,15.470999 1.6186412,34.554999 V 347.444 c 0,19.085 15.4709998,34.556 34.5549998,34.556 H 349.06265 c 19.085,0 34.556,-15.471 34.556,-34.556 V 34.554999 c 0,-19.084 -15.471,-34.5550002594531 -34.555,-34.5550002594531 z M 119.82564,329.844 c 0,5.554 -4.502,10.056 -10.056,10.056 H 66.963641 c -5.554,0 -10.056,-4.502 -10.056,-10.056 V 150.403 c 0,-5.554 4.502,-10.056 10.056,-10.056 h 42.805999 c 5.554,0 10.056,4.502 10.056,10.056 z M 88.366641,123.432 c -22.459,0 -40.666,-18.207 -40.666,-40.666002 0,-22.459 18.207,-40.666 40.666,-40.666 22.458999,0 40.665999,18.207 40.665999,40.666 0,22.459002 -18.206,40.666002 -40.665999,40.666002 z M 343.52865,330.654 c 0,5.106 -4.14,9.246 -9.246,9.246 h -45.934 c -5.106,0 -9.246,-4.14 -9.246,-9.246 v -84.168 c 0,-12.556 3.683,-55.021 -32.81301,-55.021 -28.309,0 -34.051,29.066 -35.204,42.11 v 97.079 c 0,5.106 -4.139,9.246 -9.246,9.246 h -44.426 c -5.106,0 -9.246,-4.14 -9.246,-9.246 V 149.593 c 0,-5.106 4.14,-9.246 9.246,-9.246 h 44.426 c 5.106,0 9.246,4.14 9.246,9.246 v 15.655 c 10.497,-15.753 26.097,-27.912 59.31201,-27.912 73.552,0 73.131,68.716 73.131,106.472 z"
     style="fill:#0077b7"
     inkscape:connector-curvature="0" /></g>
<g
   id="g4">
</g>
<g
   id="g6">
</g>
<g
   id="g8">
</g>
<g
   id="g10">
</g>
<g
   id="g12">
</g>
<g
   id="g14">
</g>
<g
   id="g16">
</g>
<g
   id="g18">
</g>
<g
   id="g20">
</g>
<g
   id="g22">
</g>
<g
   id="g24">
</g>
<g
   id="g26">
</g>
<g
   id="g28">
</g>
<g
   id="g30">
</g>
<g
   id="g32">
</g>
</svg>