<?xml version="1.0" encoding="UTF-8" standalone="no"?>
<!-- Generator: Adobe Illustrator 19.0.0, SVG Export Plug-In . SVG Version: 6.00 Build 0)  -->

<svg
   xmlns:dc="http://purl.org/dc/elements/1.1/"
   xmlns:cc="http://creativecommons.org/ns#"
   xmlns:rdf="http://www.w3.org/1999/02/22-rdf-syntax-ns#"
   xmlns:svg="http://www.w3.org/2000/svg"
   xmlns="http://www.w3.org/2000/svg"
   xmlns:sodipodi="http://sodipodi.sourceforge.net/DTD/sodipodi-0.dtd"
   xmlns:inkscape="http://www.inkscape.org/namespaces/inkscape"
   version="1.1"
   id="Layer_1"
   x="0px"
   y="0px"
   viewBox="0 0 382 382"
   style="enable-background:new 0 0 382 382;"
   xml:space="preserve"
   sodipodi:docname="linkedin.svg"
   inkscape:version="0.92.5 (2060ec1f9f, 2020-04-08)"><metadata
   id="metadata39"><rdf:RDF><cc:Work
       rdf:about=""><dc:format>image/svg+xml</dc:format><dc:type
         rdf:resource="http://purl.org/dc/dcmitype/StillImage" /><dc:title></dc:title></cc:Work></rdf:RDF></metadata><defs
   id="defs37" /><sodipodi:namedview
   pagecolor="#ffffff"
   bordercolor="#666666"
   borderopacity="1"
   objecttolerance="10"
   gridtolerance="10"
   guidetolerance="10"
   inkscape:pageopacity="0"
   inkscape:pageshadow="2"
   inkscape:window-width="1920"
   inkscape:window-height="1007"
   id="namedview35"
   showgrid="false"
   inkscape:zoom="1.2356021"
   inkscape:cx="191.0602"
   inkscape:cy="162.69107"
   inkscape:window-x="0"
   inkscape:window-y="0"
   inkscape:window-maximized="1"
   inkscape:current-layer="Layer_1"
   inkscape:pagecheckerboard="true" />

<g
   id="g4">
</g>
<g
   id="g6">
</g>
<g
   id="g8">
</g>
<g
   id="g10">
</g>
<g
   id="g12">
</g>
<g
   id="g14">
</g>
<g
   id="g16">
</g>
<g
   id="g18">
</g>
<g
   id="g20">
</g>
<g
   id="g22">
</g>
<g
   id="g24">
</g>
<g
   id="g26">
</g>
<g
   id="g28">
</g>
<g
   id="g30">
</g>
<g
   id="g32">
</g>
<path
   inkscape:connector-curvature="0"
   style="fill:#0077b7"
   d="M 348.25432,-1.0388907e-6 H 35.364316 C 16.280316,-1.0388907e-6 0.80931648,15.470999 0.80931648,34.554999 V 347.44401 c 0,19.085 15.47099952,34.556 34.55499952,34.556 H 348.25332 c 19.085,0 34.556,-15.471 34.556,-34.556 V 34.554999 c 0,-19.084 -15.471,-34.5550000388907 -34.555,-34.5550000388907 z M 119.01632,329.84401 c 0,5.554 -4.502,10.056 -10.056,10.056 H 66.154316 c -5.554,0 -10.056,-4.502 -10.056,-10.056 v -179.441 c 0,-5.554 4.502,-10.056 10.056,-10.056 h 42.806004 c 5.554,0 10.056,4.502 10.056,10.056 z m -31.459004,-206.412 c -22.459,0 -40.666,-18.20701 -40.666,-40.666011 0,-22.459 18.207,-40.666 40.666,-40.666 22.459004,0 40.666004,18.207 40.666004,40.666 0,22.459001 -18.206,40.666011 -40.666004,40.666011 z m 255.162004,207.222 c 0,5.106 -4.14,9.246 -9.246,9.246 h -45.934 c -5.106,0 -9.246,-4.14 -9.246,-9.246 v -84.168 c 0,-12.556 3.683,-55.021 -32.813,-55.021 -28.309,0 -34.051,29.066 -35.204,42.11 v 97.079 c 0,5.106 -4.139,9.246 -9.246,9.246 h -44.426 c -5.106,0 -9.246,-4.14 -9.246,-9.246 v -181.061 c 0,-5.106 4.14,-9.246 9.246,-9.246 h 44.426 c 5.106,0 9.246,4.14 9.246,9.246 v 15.655 c 10.497,-15.753 26.097,-27.912 59.312,-27.912 73.552,0 73.131,68.716 73.131,106.472 z"
   id="path2" /><path
   style="opacity:1;fill:#ffffff;fill-opacity:1;stroke:none;stroke-width:3.05885506;stroke-linecap:round;stroke-linejoin:miter;stroke-miterlimit:4;stroke-dasharray:none;stroke-dashoffset:0;stroke-opacity:1;paint-order:stroke fill markers"
   d="M 80.506812,122.43491 C 61.717165,119.22517 47.175475,101.57246 47.371262,82.210407 47.556799,63.862108 61.441524,47.05866 79.534995,43.285501 c 20.018875,-4.174677 40.818085,8.399455 46.622875,28.185787 2.8099,9.577899 1.13512,23.487683 -3.80702,31.618992 -2.58793,4.25793 -9.17989,10.97487 -13.47643,13.73195 -7.76009,4.97964 -19.025458,7.20855 -28.367608,5.61268 z"
   id="path854"
   inkscape:connector-curvature="0" /><path
   style="opacity:1;fill:#ffffff;fill-opacity:1;stroke:none;stroke-width:3.05885506;stroke-linecap:round;stroke-linejoin:miter;stroke-miterlimit:4;stroke-dasharray:none;stroke-dashoffset:0;stroke-opacity:1;paint-order:stroke fill markers"
   d="m 61.970423,338.38874 c -1.069908,-0.54985 -2.708786,-2.02789 -3.64195,-3.28453 -1.695659,-2.28346 -1.696799,-2.33843 -1.929886,-93.07204 -0.128274,-49.93297 -0.02338,-91.95669 0.233095,-93.38603 0.256477,-1.42934 1.573077,-3.70556 2.925778,-5.05826 l 2.459456,-2.45946 h 25.251309 c 27.638405,0 27.543715,-0.0153 30.067365,4.86487 1.05211,2.03456 1.20936,14.29312 1.20936,94.27708 0,100.96317 0.28072,95.2717 -4.82944,97.91426 -1.96528,1.01629 -6.45725,1.22563 -26.08694,1.21576 -17.209397,-0.009 -24.246372,-0.28611 -25.658147,-1.01165 z"
   id="path856"
   inkscape:connector-curvature="0" /><path
   style="opacity:1;fill:#ffffff;fill-opacity:1;stroke:none;stroke-width:3.05885506;stroke-linecap:round;stroke-linejoin:miter;stroke-miterlimit:4;stroke-dasharray:none;stroke-dashoffset:0;stroke-opacity:1;paint-order:stroke fill markers"
   d="m 150.72827,337.05085 -2.64307,-2.36148 -0.2123,-93.90833 -0.21231,-93.90832 2.52178,-2.87215 2.52178,-2.87215 h 25.8017 25.8017 l 2.64306,2.36014 2.64307,2.36015 0.40466,9.96855 0.40466,9.96856 3.0918,-4.21901 c 7.47866,-10.20525 19.02009,-17.75371 32.56205,-21.29662 8.41703,-2.2021 26.59863,-2.99572 36.9602,-1.6133 29.6244,3.95243 48.02204,21.91771 55.2633,53.96456 3.56081,15.75872 3.9743,24.43674 4.00933,84.14399 0.0358,60.96663 0.17715,59.05641 -4.55198,61.50194 -1.77189,0.91628 -7.32961,1.14494 -27.82883,1.14494 H 284.2941 l -2.75169,-2.7517 -2.7517,-2.75169 -0.005,-51.67521 c -0.006,-58.51133 -0.35167,-63.45954 -5.1484,-73.56894 -3.62781,-7.64583 -6.88086,-11.14147 -13.31392,-14.30681 -5.13179,-2.52509 -5.80842,-2.64692 -14.7008,-2.64692 -8.67819,0 -9.65651,0.16439 -14.17736,2.38237 -6.40458,3.14215 -11.87476,8.88645 -15.30751,16.07459 -5.81335,12.1731 -5.59623,9.70232 -6.09457,69.35448 -0.34304,41.06312 -0.69089,54.2417 -1.46753,55.59939 -2.43175,4.25106 -2.70621,4.29044 -29.90363,4.29044 h -25.3008 z"
   id="path858"
   inkscape:connector-curvature="0" /></svg>