<?xml version="1.0" encoding="UTF-8" standalone="no"?>
<svg
   xmlns:dc="http://purl.org/dc/elements/1.1/"
   xmlns:cc="http://creativecommons.org/ns#"
   xmlns:rdf="http://www.w3.org/1999/02/22-rdf-syntax-ns#"
   xmlns:svg="http://www.w3.org/2000/svg"
   xmlns="http://www.w3.org/2000/svg"
   xmlns:sodipodi="http://sodipodi.sourceforge.net/DTD/sodipodi-0.dtd"
   xmlns:inkscape="http://www.inkscape.org/namespaces/inkscape"
   width="107"
   height="94"
   version="1.1"
   id="svg34"
   sodipodi:docname="postgresql-vertical.svg"
   inkscape:version="0.92.5 (2060ec1f9f, 2020-04-08)">
  <metadata
     id="metadata40">
    <rdf:RDF>
      <cc:Work
         rdf:about="">
        <dc:format>image/svg+xml</dc:format>
        <dc:type
           rdf:resource="http://purl.org/dc/dcmitype/StillImage" />
      </cc:Work>
    </rdf:RDF>
  </metadata>
  <defs
     id="defs38" />
  <sodipodi:namedview
     pagecolor="#ffffff"
     bordercolor="#666666"
     borderopacity="1"
     objecttolerance="10"
     gridtolerance="10"
     guidetolerance="10"
     inkscape:pageopacity="0"
     inkscape:pageshadow="2"
     inkscape:window-width="1920"
     inkscape:window-height="1007"
     id="namedview36"
     showgrid="false"
     inkscape:zoom="2.5106383"
     inkscape:cx="126.0548"
     inkscape:cy="21.690528"
     inkscape:window-x="0"
     inkscape:window-y="0"
     inkscape:window-maximized="1"
     inkscape:current-layer="svg34" />
  <style
     id="style2"><![CDATA[.B{stroke-width:1.682}.C{stroke:#fff}.D{stroke-linecap:round}.E{stroke-linejoin:round}]]></style>
  <g
     id="g919">
    <g
       id="g898">
      <path
         style="fill:#231f20;stroke:#ffffff;stroke-width:1;stroke-miterlimit:4;stroke-dasharray:none;stroke-opacity:1"
         inkscape:connector-curvature="0"
         id="path4-6-5"
         d="M 11.2,78.902 H 6.542 v -4.26 h 4.92 c 1.8,0 2.702,0.72 2.702,2.163 0,1.398 -0.985,2.097 -2.955,2.097 m 3.354,-4.3 c -0.64,-0.52 -1.534,-0.78 -2.684,-0.78 l -6.684,0.034 v 10.2 H 6.542 L 6.53,79.718 h 4.973 c 1.247,0 2.23,-0.26 2.945,-0.78 0.715,-0.52 1.075,-1.24 1.075,-2.163 0,-0.923 -0.32,-1.643 -0.96,-2.163 z m 8.717,7.296 a 2.09,2.09 0 0 1 -0.639,0.867 c -0.603,0.534 -1.523,0.8 -2.76,0.8 -1.118,0 -1.976,-0.26 -2.574,-0.78 -0.598,-0.52 -0.898,-1.214 -0.898,-2.085 0,-0.453 0.078,-0.856 0.235,-1.207 a 2.4,2.4 0 0 1 0.68,-0.89 c 0.62,-0.512 1.47,-0.768 2.557,-0.768 2.404,0 3.606,0.955 3.606,2.864 0,0.454 -0.07,0.852 -0.205,1.196 m 0.244,-3.76 c -0.82,-0.68 -2.036,-1.02 -3.645,-1.02 -1.52,0 -2.696,0.347 -3.524,1.04 -0.748,0.628 -1.122,1.475 -1.122,2.54 0,1.065 0.386,1.913 1.16,2.563 a 3.99,3.99 0 0 0 1.491,0.761 c 0.567,0.157 1.233,0.235 1.997,0.235 1.6,0 2.82,-0.336 3.657,-1.008 0.748,-0.613 1.122,-1.464 1.122,-2.552 0,-1.095 -0.378,-1.95 -1.135,-2.563 z m 10.186,4.057 c 0,1.372 -1.354,2.057 -4.063,2.057 -0.828,0 -1.525,-0.048 -2.092,-0.143 -0.567,-0.095 -1.027,-0.254 -1.38,-0.474 -0.273,-0.168 -0.5,-0.387 -0.65,-0.657 a 2.75,2.75 0 0 1 -0.313,-1.018 l 1.26,-0.01 c 0,0.54 0.22,0.937 0.662,1.193 0.473,0.307 1.312,0.46 2.515,0.46 1.893,0 2.84,-0.43 2.84,-1.3 0,-0.503 -0.317,-0.85 -0.952,-1.04 -0.13,-0.037 -0.894,-0.133 -2.297,-0.3 L 26.62,80.54 c -0.747,-0.27 -1.12,-0.755 -1.12,-1.456 0,-0.686 0.334,-1.197 1.002,-1.532 0.33,-0.14 0.742,-0.246 1.237,-0.323 0.495,-0.077 1.068,-0.115 1.72,-0.115 2.607,0 3.9,0.742 3.9,2.227 h -1.2 c 0,-1.043 -0.916,-1.565 -2.75,-1.565 -0.932,0 -1.628,0.106 -2.086,0.317 -0.458,0.211 -0.687,0.536 -0.687,0.974 0,0.4 0.3,0.704 0.928,0.886 0.362,0.095 1.194,0.205 2.496,0.328 1.166,0.095 1.965,0.23 2.4,0.405 0.828,0.292 1.242,0.788 1.242,1.488 z m 4.948,1.858 -0.513,0.065 -0.32,0.022 c -0.82,0 -1.412,-0.108 -1.775,-0.324 -0.363,-0.216 -0.544,-0.594 -0.544,-1.135 v -4.65 h -1.495 v -0.684 h 1.483 l 0.012,-2.197 h 1.15 v 2.197 h 2 v 0.695 l -2,-0.01 v 4.524 c 0,0.337 0.098,0.57 0.296,0.698 0.198,0.128 0.55,0.192 1.055,0.192 0.072,0.007 0.153,0.005 0.24,-0.007 0.087,-0.012 0.22,-0.04 0.398,-0.082 l 0.012,0.698 z m 7.947,-1.542 a 3.52,3.52 0 0 1 -1.073,0.536 c -0.402,0.124 -0.864,0.186 -1.386,0.186 -2.403,0 -3.604,-0.9 -3.604,-2.7 0,-0.838 0.307,-1.495 0.922,-1.968 0.615,-0.473 1.48,-0.7 2.597,-0.7 1.125,0 1.98,0.24 2.56,0.716 0.58,0.476 0.874,1.117 0.874,1.92 0,0.875 -0.297,1.55 -0.892,2.023 m 2.04,-5.16 H 47.5 l -0.012,1.15 c -0.506,-0.467 -0.868,-0.762 -1.085,-0.886 -0.643,-0.32 -1.475,-0.48 -2.496,-0.48 -1.496,0 -2.637,0.3 -3.425,0.93 -0.748,0.57 -1.122,1.393 -1.122,2.472 0,0.532 0.095,1.008 0.284,1.427 a 2.86,2.86 0 0 0 0.827,1.066 c 0.8,0.598 1.904,0.897 3.346,0.897 1.73,0 2.96,-0.43 3.684,-1.3 v 1.2 c 0,0.76 -0.264,1.346 -0.8,1.762 -0.536,0.416 -1.393,0.624 -2.6,0.624 -1.134,0 -1.942,-0.142 -2.424,-0.425 -0.362,-0.218 -0.6,-0.596 -0.748,-1.133 h -1.182 c 0.13,0.75 0.48,1.294 1.05,1.63 0.66,0.386 1.773,0.58 3.342,0.58 3,0 4.5,-1.012 4.5,-3.036 v -6.5 z m 6.217,0.675 A 6.64,6.64 0 0 0 53.898,77.96 c -1.888,0 -2.832,0.94 -2.832,2.82 v 3.268 H 49.93 l -0.012,-6.687 1.15,0.01 v 1.193 h 0.06 a 2.13,2.13 0 0 1 0.916,-1.069 c 0.458,-0.235 1.14,-0.353 2.05,-0.353 h 0.77 v 0.895 z m 1.068,2.234 c 0.145,-0.76 0.47,-1.348 0.976,-1.765 0.33,-0.24 0.703,-0.422 1.12,-0.543 0.417,-0.121 0.888,-0.18 1.4,-0.18 1.02,0 1.854,0.254 2.5,0.762 0.646,0.508 0.97,1.083 0.97,1.727 h -6.98 m 7.092,-2.063 c -0.402,-0.366 -0.9,-0.637 -1.496,-0.812 -0.596,-0.175 -1.3,-0.264 -2.087,-0.264 -1.5,0 -2.643,0.314 -3.464,0.942 -0.821,0.628 -1.23,1.482 -1.23,2.563 0,1.081 0.394,1.938 1.182,2.573 0.852,0.7 2.055,1.05 3.607,1.05 0.62,0 1.192,-0.064 1.72,-0.2 0.528,-0.136 0.987,-0.307 1.38,-0.54 0.692,-0.45 1.13,-1.007 1.315,-1.668 h -1.242 c -0.426,1.143 -1.487,1.715 -3.183,1.715 -1.198,0 -2.12,-0.28 -2.76,-0.84 -0.555,-0.48 -0.832,-1.1 -0.832,-1.863 h 8.2 c 0,-1.134 -0.366,-2.024 -1.098,-2.668 z" />
      <path
         style="fill:#367faf;stroke:#ffffff;stroke-width:1;stroke-miterlimit:4;stroke-dasharray:none;stroke-opacity:1"
         inkscape:connector-curvature="0"
         id="path6-7-3"
         d="m 76.258001,81.305 c 0,1.985 -1.764,2.978 -5.294,2.978 -2.115,0 -3.658,-0.342 -4.630001,-1.026 -0.796,-0.562 -1.194,-1.42 -1.194,-2.572 h 1.420001 c 0,1.853 1.467,2.78 4.403,2.78 1.407,0 2.425,-0.2 3.053,-0.57 0.53,-0.335 0.796,-0.86 0.796,-1.575 0,-0.707 -0.362,-1.203 -1.086,-1.487 -0.4,-0.153 -1.412,-0.346 -3.004,-0.58 -2.003,-0.277 -3.3,-0.554 -3.897,-0.83 C 65.965,78.015 65.525,77.323 65.525,76.345 c 0,-0.9 0.366,-1.6 1.098001,-2.034 0.788,-0.488 2.14,-0.733 4.054,-0.733 3.46,0 5.188,1.042 5.188,3.127 h -1.433 c 0,-1.562 -1.284,-2.342 -3.852,-2.342 -1.288,0 -2.23,0.157 -2.826,0.47 -0.564,0.336 -0.845,0.828 -0.845,1.478 0,0.68 0.362,1.157 1.086,1.434 0.386,0.16 1.52,0.383 3.402,0.668 1.77,0.24 2.964,0.522 3.584,0.843 0.845,0.394 1.267,1.077 1.267,2.048 z m 11.54,1.013 a 5.75,5.75 0 0 1 -1.799,0.869 c -0.668,0.193 -1.417,0.3 -2.246,0.3 -1.7,0 -3.057,-0.413 -4.1,-1.24 -1.043,-0.827 -1.553,-1.94 -1.553,-3.317 0,-1.435 0.517,-2.553 1.55,-3.355 1.033,-0.802 2.405,-1.202 4.112,-1.202 1.73,0 3.092,0.42 4.082,1.257 a 3.93,3.93 0 0 1 1.16,1.432 c 0.26,0.547 0.374,1.17 0.374,1.87 0,1.428 -0.523,2.557 -1.57,3.387 m 0.755,0.676 c 0.74,-0.474 1.288,-1.048 1.642,-1.722 0.354,-0.674 0.532,-1.453 0.532,-2.335 0,-1.582 -0.58,-2.85 -1.738,-3.806 -0.62,-0.525 -1.368,-0.915 -2.244,-1.17 -0.876,-0.255 -1.88,-0.383 -3.004,-0.383 -2.188,0 -3.905,0.48 -5.152,1.444 -1.247,0.964 -1.87,2.267 -1.87,3.915 a 4.69,4.69 0 0 0 1.887,3.882 c 1.257,0.984 2.978,1.476 5.157,1.476 a 13.83,13.83 0 0 0 2.23,-0.157 c 0.634,-0.105 1.174,-0.265 1.617,-0.482 l 2.1,1.32 0.876,-0.73 -2.032,-1.25 z m 12.803999,1.04 h -9.706999 v -10.2 l 1.334,-0.022 v 9.37 H 101.379 Z" />
    </g>
    <g
       id="g849">
      <path
         d="M11.2 78.902H6.542v-4.26h4.92c1.8 0 2.702.72 2.702 2.163 0 1.398-.985 2.097-2.955 2.097m3.354-4.3c-.64-.52-1.534-.78-2.684-.78l-6.684.034v10.2h1.347l-.012-4.338h4.973c1.247 0 2.23-.26 2.945-.78s1.075-1.24 1.075-2.163-.32-1.643-.96-2.163zm8.717 7.296a2.09 2.09 0 0 1-.639.867c-.603.534-1.523.8-2.76.8-1.118 0-1.976-.26-2.574-.78s-.898-1.214-.898-2.085c0-.453.078-.856.235-1.207a2.4 2.4 0 0 1 .68-.89c.62-.512 1.47-.768 2.557-.768 2.404 0 3.606.955 3.606 2.864 0 .454-.07.852-.205 1.196m.244-3.76c-.82-.68-2.036-1.02-3.645-1.02-1.52 0-2.696.347-3.524 1.04-.748.628-1.122 1.475-1.122 2.54s.386 1.913 1.16 2.563a3.99 3.99 0 0 0 1.491.761c.567.157 1.233.235 1.997.235 1.6 0 2.82-.336 3.657-1.008.748-.613 1.122-1.464 1.122-2.552 0-1.095-.378-1.95-1.135-2.563zm10.186 4.057c0 1.372-1.354 2.057-4.063 2.057-.828 0-1.525-.048-2.092-.143s-1.027-.254-1.38-.474c-.273-.168-.5-.387-.65-.657a2.75 2.75 0 0 1-.313-1.018l1.26-.01c0 .54.22.937.662 1.193.473.307 1.312.46 2.515.46 1.893 0 2.84-.43 2.84-1.3 0-.503-.317-.85-.952-1.04-.13-.037-.894-.133-2.297-.3l-2.622-.42c-.747-.27-1.12-.755-1.12-1.456 0-.686.334-1.197 1.002-1.532.33-.14.742-.246 1.237-.323s1.068-.115 1.72-.115c2.607 0 3.9.742 3.9 2.227h-1.2c0-1.043-.916-1.565-2.75-1.565-.932 0-1.628.106-2.086.317s-.687.536-.687.974c0 .4.3.704.928.886.362.095 1.194.205 2.496.328 1.166.095 1.965.23 2.4.405.828.292 1.242.788 1.242 1.488zm4.948 1.858l-.513.065-.32.022c-.82 0-1.412-.108-1.775-.324s-.544-.594-.544-1.135v-4.65h-1.495v-.684h1.483l.012-2.197h1.15v2.197h2v.695l-2-.01v4.524c0 .337.098.57.296.698s.55.192 1.055.192c.072.007.153.005.24-.007s.22-.04.398-.082l.012.698zm7.947-1.542a3.52 3.52 0 0 1-1.073.536c-.402.124-.864.186-1.386.186-2.403 0-3.604-.9-3.604-2.7 0-.838.307-1.495.922-1.968s1.48-.7 2.597-.7c1.125 0 1.98.24 2.56.716s.874 1.117.874 1.92c0 .875-.297 1.55-.892 2.023m2.04-5.16H47.5l-.012 1.15c-.506-.467-.868-.762-1.085-.886-.643-.32-1.475-.48-2.496-.48-1.496 0-2.637.3-3.425.93-.748.57-1.122 1.393-1.122 2.472 0 .532.095 1.008.284 1.427a2.86 2.86 0 0 0 .827 1.066c.8.598 1.904.897 3.346.897 1.73 0 2.96-.43 3.684-1.3v1.2c0 .76-.264 1.346-.8 1.762s-1.393.624-2.6.624c-1.134 0-1.942-.142-2.424-.425-.362-.218-.6-.596-.748-1.133h-1.182c.13.75.48 1.294 1.05 1.63.66.386 1.773.58 3.342.58 3 0 4.5-1.012 4.5-3.036v-6.5zm6.217.675a6.64 6.64 0 0 0-.964-.076c-1.888 0-2.832.94-2.832 2.82v3.268H49.93l-.012-6.687 1.15.01v1.193h.06a2.13 2.13 0 0 1 .916-1.069c.458-.235 1.14-.353 2.05-.353h.77v.895zm1.068 2.234c.145-.76.47-1.348.976-1.765.33-.24.703-.422 1.12-.543s.888-.18 1.4-.18c1.02 0 1.854.254 2.5.762s.97 1.083.97 1.727h-6.98m7.092-2.063c-.402-.366-.9-.637-1.496-.812s-1.3-.264-2.087-.264c-1.5 0-2.643.314-3.464.942s-1.23 1.482-1.23 2.563.394 1.938 1.182 2.573c.852.7 2.055 1.05 3.607 1.05.62 0 1.192-.064 1.72-.2s.987-.307 1.38-.54c.692-.45 1.13-1.007 1.315-1.668h-1.242c-.426 1.143-1.487 1.715-3.183 1.715-1.198 0-2.12-.28-2.76-.84-.555-.48-.832-1.1-.832-1.863h8.2c0-1.134-.366-2.024-1.098-2.668z"
         fill="#231f20"
         id="path4" />
      <path
         d="M76.258 81.305c0 1.985-1.764 2.978-5.294 2.978-2.115 0-3.658-.342-4.63-1.026-.796-.562-1.194-1.42-1.194-2.572h1.42c0 1.853 1.467 2.78 4.403 2.78 1.407 0 2.425-.2 3.053-.57.53-.335.796-.86.796-1.575 0-.707-.362-1.203-1.086-1.487-.4-.153-1.412-.346-3.004-.58-2.003-.277-3.3-.554-3.897-.83-.86-.408-1.3-1.1-1.3-2.078 0-.9.366-1.6 1.098-2.034.788-.488 2.14-.733 4.054-.733 3.46 0 5.188 1.042 5.188 3.127h-1.433c0-1.562-1.284-2.342-3.852-2.342-1.288 0-2.23.157-2.826.47-.564.336-.845.828-.845 1.478 0 .68.362 1.157 1.086 1.434.386.16 1.52.383 3.402.668 1.77.24 2.964.522 3.584.843.845.394 1.267 1.077 1.267 2.048zm11.54 1.013a5.75 5.75 0 0 1-1.799.869c-.668.193-1.417.3-2.246.3-1.7 0-3.057-.413-4.1-1.24S78.1 80.307 78.1 78.93c0-1.435.517-2.553 1.55-3.355s2.405-1.202 4.112-1.202c1.73 0 3.092.42 4.082 1.257a3.93 3.93 0 0 1 1.16 1.432c.26.547.374 1.17.374 1.87 0 1.428-.523 2.557-1.57 3.387m.755.676c.74-.474 1.288-1.048 1.642-1.722s.532-1.453.532-2.335c0-1.582-.58-2.85-1.738-3.806-.62-.525-1.368-.915-2.244-1.17s-1.88-.383-3.004-.383c-2.188 0-3.905.48-5.152 1.444s-1.87 2.267-1.87 3.915a4.69 4.69 0 0 0 1.887 3.882c1.257.984 2.978 1.476 5.157 1.476a13.83 13.83 0 0 0 2.23-.157c.634-.105 1.174-.265 1.617-.482l2.1 1.32.876-.73-2.032-1.25zm12.804 1.04H91.66v-10.2l1.334-.022v9.37h8.385l-.012.852z"
         fill="#367faf"
         id="path6" />
    </g>
    <path
       id="path8"
       stroke-width="5.046"
       stroke="#231f20"
       fill="#231f20"
       d="M67.546 49.655c.382-3.185.268-3.652 2.64-3.136l.602.053c1.824.083 4.2-.293 5.612-.945 3.018-1.4 4.807-3.738 1.832-3.124-6.787 1.4-7.254-.898-7.254-.898 7.167-10.634 10.163-24.134 7.577-27.44-7.054-9.013-19.263-4.75-19.468-4.64l-.065.012c-1.342-.278-2.842-.444-4.528-.472-3.07-.05-5.402.805-7.17 2.146 0 0-21.78-8.974-20.768 11.286.216 4.3 6.178 32.612 13.288 24.063 2.6-3.126 5.11-5.77 5.11-5.77 1.247.83 2.74 1.25 4.306 1.1l.12-.103c-.038.388-.02.768.048 1.217-1.832 2.047-1.293 2.406-4.956 3.16-3.705.764-1.528 2.123-.107 2.478 1.723.43 5.71 1.04 8.402-2.73l-.107.43c.72.575.67 4.132.772 6.673s.272 4.913.8 6.312 1.13 5 5.943 3.968c4.023-.862 7.098-2.103 7.38-13.644" />
    <path
       id="path10"
       fill="#417ba2"
       d="M78.233 42.503c-6.788 1.4-7.255-.898-7.255-.898 7.167-10.635 10.163-24.135 7.578-27.44-7.054-9.012-19.264-4.75-19.468-4.64l-.066.012c-1.342-.278-2.842-.444-4.53-.472-3.07-.05-5.4.805-7.17 2.146 0 0-21.782-8.973-20.77 11.286.215 4.3 6.177 32.612 13.288 24.064 2.6-3.126 5.1-5.77 5.1-5.77 1.247.83 2.74 1.25 4.306 1.1l.122-.103c-.038.388-.02.768.05 1.217-1.832 2.047-1.294 2.406-4.956 3.16-3.706.764-1.53 2.123-.108 2.478 1.723.43 5.71 1.04 8.402-2.73l-.107.43c.718.575 1.222 3.74 1.137 6.608s-.14 4.838.425 6.377 1.13 5 5.944 3.968c4.023-.862 6.107-3.096 6.397-6.822.206-2.65.67-2.258.7-4.626l.374-1.12c.43-3.59.068-4.75 2.547-4.21l.602.053c1.824.083 4.21-.293 5.613-.945 3.017-1.4 4.807-3.738 1.832-3.124z" />
    <g
       id="g24"
       class="C B"
       fill="none">
      <g
         id="g16"
         class="D">
        <path
           id="path12"
           class="E"
           d="M53.06 44.562c-.187 6.682.047 13.4.7 15.046s2.054 4.816 6.87 3.785c4.022-.862 5.486-2.53 6.12-6.214.468-2.7 1.37-10.236 1.485-11.778M47.3 11.063s-21.797-8.9-20.783 11.35c.216 4.3 6.178 32.613 13.3 24.064 2.6-3.126 4.95-5.578 4.95-5.578M59.064 9.437c-.755.237 12.125-4.708 19.444 4.644 2.585 3.304-.4 16.804-7.578 27.44" />
        <path
           id="path14"
           stroke-linejoin="bevel"
           d="M70.93 41.52s.467 2.3 7.255.898c2.974-.614 1.184 1.724-1.832 3.125-2.476 1.15-8.026 1.443-8.117-.144-.234-4.096 2.92-2.852 2.694-3.878-.206-.924-1.617-1.832-2.55-4.094-.815-1.975-11.173-17.12 2.873-14.87.515-.106-3.663-13.36-16.808-13.575s-12.7 16.162-12.7 16.162" />
      </g>
      <g
         id="g22"
         class="E">
        <path
           id="path18"
           d="M49.383 42.922c-1.832 2.047-1.293 2.406-4.956 3.16-3.705.764-1.528 2.123-.108 2.478 1.723.43 5.71 1.042 8.402-2.73.82-1.148-.005-2.98-1.13-3.448-.544-.225-1.272-.508-2.208.54z" />
        <path
           id="path20"
           class="D"
           d="M49.262 42.886c-.184-1.203.396-2.635 1.017-4.31.934-2.513 3.09-5.028 1.365-13-1.285-5.942-9.904-1.237-9.91-.43s.4 4.084-.144 7.9c-.697 4.98 3.17 9.194 7.622 8.763" />
      </g>
    </g>
    <g
       id="g30"
       class="C"
       fill="#fff">
      <path
         id="path26"
         stroke-width=".561"
         d="M47.212 25.023c-.04.275.504 1.01 1.21 1.108s1.31-.475 1.35-.75-.504-.578-1.21-.677-1.312.045-1.35.32z" />
      <path
         id="path28"
         stroke-width=".28"
         d="M68.725 24.462c.038.275-.504 1-1.21 1.108s-1.31-.475-1.35-.75.505-.578 1.212-.677 1.31.045 1.35.32z" />
    </g>
    <path
       id="path32"
       class="B C D E"
       fill="none"
       d="M71.253 22.557c.116 2.158-.465 3.63-.538 5.927-.11 3.34 1.592 7.162-.97 10.99" />
  </g>
</svg>
