<?xml version="1.0" encoding="UTF-8" standalone="no"?>
<svg
   xmlns:dc="http://purl.org/dc/elements/1.1/"
   xmlns:cc="http://creativecommons.org/ns#"
   xmlns:rdf="http://www.w3.org/1999/02/22-rdf-syntax-ns#"
   xmlns:svg="http://www.w3.org/2000/svg"
   xmlns="http://www.w3.org/2000/svg"
   xmlns:sodipodi="http://sodipodi.sourceforge.net/DTD/sodipodi-0.dtd"
   xmlns:inkscape="http://www.inkscape.org/namespaces/inkscape"
   viewBox="0 0 132 132"
   version="1.1"
   id="svg23"
   sodipodi:docname="python.svg"
   width="132"
   height="132"
   inkscape:version="0.92.5 (2060ec1f9f, 2020-04-08)">
  <metadata
     id="metadata29">
    <rdf:RDF>
      <cc:Work
         rdf:about="">
        <dc:format>image/svg+xml</dc:format>
        <dc:type
           rdf:resource="http://purl.org/dc/dcmitype/StillImage" />
        <dc:title></dc:title>
      </cc:Work>
    </rdf:RDF>
  </metadata>
  <defs
     id="defs27" />
  <sodipodi:namedview
     pagecolor="#ffffff"
     bordercolor="#666666"
     borderopacity="1"
     objecttolerance="10"
     gridtolerance="10"
     guidetolerance="10"
     inkscape:pageopacity="0"
     inkscape:pageshadow="2"
     inkscape:window-width="1920"
     inkscape:window-height="1007"
     id="namedview25"
     showgrid="false"
     inkscape:zoom="3.6875"
     inkscape:cx="123.10051"
     inkscape:cy="68.843945"
     inkscape:window-x="0"
     inkscape:window-y="0"
     inkscape:window-maximized="1"
     inkscape:current-layer="svg23" />
  <linearGradient
     id="a"
     gradientUnits="userSpaceOnUse"
     x1="70.251999"
     y1="1237.476"
     x2="170.659"
     y2="1151.089"
     gradientTransform="matrix(0.563,0,0,-0.568,-29.215,711.817)">
    <stop
       offset="0"
       stop-color="#5A9FD4"
       id="stop2" />
    <stop
       offset="1"
       stop-color="#306998"
       id="stop4" />
  </linearGradient>
  <linearGradient
     id="b"
     gradientUnits="userSpaceOnUse"
     x1="209.474"
     y1="1098.811"
     x2="173.62"
     y2="1149.537"
     gradientTransform="matrix(0.563,0,0,-0.568,-29.215,711.817)">
    <stop
       offset="0"
       stop-color="#FFD43B"
       id="stop9" />
    <stop
       offset="1"
       stop-color="#FFE873"
       id="stop11" />
  </linearGradient>
  <g
     id="g852">
    <g
       style="stroke:#ffffff;stroke-opacity:1;stroke-width:5.67300944;stroke-miterlimit:4;stroke-dasharray:none"
       id="g844"
       transform="matrix(1.0576397,0,0,1.0576397,-3.6890115,4.2650686)">
      <path
         style="fill:url(#a);stroke:#ffffff;stroke-opacity:1;stroke-width:5.67300944;stroke-miterlimit:4;stroke-dasharray:none"
         inkscape:connector-curvature="0"
         id="path840"
         d="m 63.391,5.988 c -4.222,0.02 -8.252,0.379 -11.8,1.007 -10.45,1.846 -12.346,5.71 -12.346,12.837 v 9.411 H 63.938 V 32.38 H 29.977 c -7.176,0 -13.46,4.313 -15.426,12.521 -2.268,9.405 -2.368,15.275 0,25.096 1.755,7.311 5.947,12.519 13.124,12.519 h 8.491 V 71.234 c 0,-8.151 7.051,-15.34 15.426,-15.34 h 24.665 c 6.866,0 12.346,-5.654 12.346,-12.548 V 19.833 C 88.603,13.14 82.957,8.113 76.257,6.996 72.013,6.29 67.612,5.969 63.391,5.988 Z m -13.354,7.569 c 2.55,0 4.634,2.117 4.634,4.721 0,2.593 -2.083,4.69 -4.634,4.69 -2.56,0 -4.633,-2.097 -4.633,-4.69 -0.001,-2.604 2.073,-4.721 4.633,-4.721 z" />
      <path
         style="fill:url(#b);stroke:#ffffff;stroke-opacity:1;stroke-width:5.67300944;stroke-miterlimit:4;stroke-dasharray:none"
         inkscape:connector-curvature="0"
         id="path842"
         d="m 91.682,32.38 v 10.966 c 0,8.5 -7.208,15.655 -15.426,15.655 H 51.591 c -6.756,0 -12.346,5.783 -12.346,12.549 v 23.515 c 0,6.691 5.818,10.628 12.346,12.547 7.816,2.297 15.312,2.713 24.665,0 6.216,-1.801 12.346,-5.423 12.346,-12.547 V 85.653 H 63.938 v -3.138 h 37.012 c 7.176,0 9.852,-5.005 12.348,-12.519 2.578,-7.735 2.467,-15.174 0,-25.096 -1.774,-7.145 -5.161,-12.521 -12.348,-12.521 H 91.682 Z M 77.809,91.927 c 2.561,0 4.634,2.097 4.634,4.692 0,2.602 -2.074,4.719 -4.634,4.719 -2.55,0 -4.633,-2.117 -4.633,-4.719 0,-2.595 2.083,-4.692 4.633,-4.692 z" />
    </g>
    <g
       transform="matrix(1.0576397,0,0,1.0576397,-3.6890115,4.2650686)"
       id="g838">
      <path
         d="m 63.391,5.988 c -4.222,0.02 -8.252,0.379 -11.8,1.007 -10.45,1.846 -12.346,5.71 -12.346,12.837 v 9.411 H 63.938 V 32.38 H 29.977 c -7.176,0 -13.46,4.313 -15.426,12.521 -2.268,9.405 -2.368,15.275 0,25.096 1.755,7.311 5.947,12.519 13.124,12.519 h 8.491 V 71.234 c 0,-8.151 7.051,-15.34 15.426,-15.34 h 24.665 c 6.866,0 12.346,-5.654 12.346,-12.548 V 19.833 C 88.603,13.14 82.957,8.113 76.257,6.996 72.013,6.29 67.612,5.969 63.391,5.988 Z m -13.354,7.569 c 2.55,0 4.634,2.117 4.634,4.721 0,2.593 -2.083,4.69 -4.634,4.69 -2.56,0 -4.633,-2.097 -4.633,-4.69 -0.001,-2.604 2.073,-4.721 4.633,-4.721 z"
         id="path7"
         inkscape:connector-curvature="0"
         style="fill:url(#a)" />
      <path
         d="m 91.682,32.38 v 10.966 c 0,8.5 -7.208,15.655 -15.426,15.655 H 51.591 c -6.756,0 -12.346,5.783 -12.346,12.549 v 23.515 c 0,6.691 5.818,10.628 12.346,12.547 7.816,2.297 15.312,2.713 24.665,0 6.216,-1.801 12.346,-5.423 12.346,-12.547 V 85.653 H 63.938 v -3.138 h 37.012 c 7.176,0 9.852,-5.005 12.348,-12.519 2.578,-7.735 2.467,-15.174 0,-25.096 -1.774,-7.145 -5.161,-12.521 -12.348,-12.521 H 91.682 Z M 77.809,91.927 c 2.561,0 4.634,2.097 4.634,4.692 0,2.602 -2.074,4.719 -4.634,4.719 -2.55,0 -4.633,-2.117 -4.633,-4.719 0,-2.595 2.083,-4.692 4.633,-4.692 z"
         id="path14"
         inkscape:connector-curvature="0"
         style="fill:url(#b)" />
    </g>
  </g>
  <radialGradient
     id="c"
     cx="1825.678"
     cy="444.45001"
     r="26.743"
     gradientTransform="matrix(0,-0.24,-1.055,0,532.979,561.576)"
     gradientUnits="userSpaceOnUse">
    <stop
       offset="0"
       stop-color="#B8B8B8"
       stop-opacity=".498"
       id="stop16" />
    <stop
       offset="1"
       stop-color="#7F7F7F"
       stop-opacity="0"
       id="stop18" />
  </radialGradient>
</svg>
